<svg width="64" height="9" viewBox="0 0 64 9" xmlns="http://www.w3.org/2000/svg" xmlns:svg="http://www.w3.org/2000/svg">
  <svg class="banana">
    <rect fill="rgba(254, 95, 137, 1)" height="1" width="1" x="0" />
    <rect fill="rgba(253, 85, 134, 1)" height="1" width="1" x="1" />
    <rect fill="rgba(255, 93, 137, 1)" height="1" width="1" x="2" />
    <rect fill="rgba(254, 97, 138, 1)" height="1" width="1" x="3" />
    <rect fill="rgba(254, 97, 138, 1)" height="1" width="1" x="4" />
    <rect fill="rgba(254, 94, 136, 1)" height="1" width="1" x="5" />
    <rect fill="rgba(254, 93, 135, 1)" height="1" width="1" x="6" />
    <rect fill="rgba(254, 92, 135, 1)" height="1" width="1" x="7" />
    <rect fill="rgba(253, 93, 129, 1)" height="1" width="1" x="8" />
    <rect fill="rgba(251, 167, 119, 1)" height="1" width="1" x="9" />
    <rect fill="rgba(254, 97, 133, 1)" height="1" width="1" x="10" />
    <rect fill="rgba(254, 93, 134, 1)" height="1" width="1" x="11" />
    <rect fill="rgba(254, 95, 136, 1)" height="1" width="1" x="12" />
    <rect fill="rgba(254, 94, 136, 1)" height="1" width="1" x="13" />
    <rect fill="rgba(254, 93, 135, 1)" height="1" width="1" x="14" />
    <rect fill="rgba(253, 91, 133, 1)" height="1" width="1" x="15" />
    <rect fill="rgba(246, 76, 116, 1)" height="1" width="1" x="16" />
    <rect fill="rgba(245, 205, 98, 1)" height="1" width="1" x="17" />
    <rect fill="rgba(255, 170, 112, 1)" height="1" width="1" x="18" />
    <rect fill="rgba(253, 49, 125, 1)" height="1" width="1" x="19" />
    <rect fill="rgba(254, 95, 128, 1)" height="1" width="1" x="20" />
    <rect fill="rgba(254, 93, 131, 1)" height="1" width="1" x="21" />
    <rect fill="rgba(253, 90, 132, 1)" height="1" width="1" x="22" />
    <rect fill="rgba(252, 85, 130, 1)" height="1" width="1" x="23" />
    <rect fill="rgba(236, 62, 117, 1)" height="1" width="1" x="24" />
    <rect fill="rgba(189, 122, 43, 1)" height="1" width="1" x="25" />
    <rect fill="rgba(252, 208, 79, 1)" height="1" width="1" x="26" />
    <rect fill="rgba(255, 155, 115, 1)" height="1" width="1" x="27" />
    <rect fill="rgba(252, 63, 126, 1)" height="1" width="1" x="28" />
    <rect fill="rgba(253, 72, 127, 1)" height="1" width="1" x="29" />
    <rect fill="rgba(253, 81, 127, 1)" height="1" width="1" x="30" />
    <rect fill="rgba(251, 83, 126, 1)" height="1" width="1" x="31" />
    <rect fill="rgba(247, 78, 123, 1)" height="1" width="1" x="32" />
    <rect fill="rgba(171, 30, 73, 1)" height="1" width="1" x="33" />
    <rect fill="rgba(177, 132, 15, 1)" height="1" width="1" x="34" />
    <rect fill="rgba(248, 205, 76, 1)" height="1" width="1" x="35" />
    <rect fill="rgba(255, 192, 109, 1)" height="1" width="1" x="36" />
    <rect fill="rgba(255, 148, 124, 1)" height="1" width="1" x="37" />
    <rect fill="rgba(255, 107, 126, 1)" height="1" width="1" x="38" />
    <rect fill="rgba(254, 80, 125, 1)" height="1" width="1" x="39" />
    <rect fill="rgba(251, 82, 126, 1)" height="1" width="1" x="40" />
    <rect fill="rgba(226, 67, 108, 1)" height="1" width="1" x="41" />
    <rect fill="rgba(143, 0, 56, 1)" height="1" width="1" x="42" />
    <rect fill="rgba(136, 80, 1, 1)" height="1" width="1" x="43" />
    <rect fill="rgba(201, 162, 33, 1)" height="1" width="1" x="44" />
    <rect fill="rgba(232, 193, 65, 1)" height="1" width="1" x="45" />
    <rect fill="rgba(235, 178, 63, 1)" height="1" width="1" x="46" />
    <rect fill="rgba(243, 94, 113, 1)" height="1" width="1" x="47" />
    <rect fill="rgba(250, 81, 126, 1)" height="1" width="1" x="48" />
    <rect fill="rgba(242, 76, 119, 1)" height="1" width="1" x="49" />
    <rect fill="rgba(217, 63, 101, 1)" height="1" width="1" x="50" />
    <rect fill="rgba(163, 25, 72, 1)" height="1" width="1" x="51" />
    <rect fill="rgba(121, 0, 48, 1)" height="1" width="1" x="52" />
    <rect fill="rgba(117, 0, 27, 1)" height="1" width="1" x="53" />
    <rect fill="rgba(129, 49, 29, 1)" height="1" width="1" x="54" />
    <rect fill="rgba(224, 70, 107, 1)" height="1" width="1" x="55" />
    <rect fill="rgba(244, 75, 120, 1)" height="1" width="1" x="56" />
    <rect fill="rgba(240, 73, 119, 1)" height="1" width="1" x="57" />
    <rect fill="rgba(233, 69, 115, 1)" height="1" width="1" x="58" />
    <rect fill="rgba(220, 65, 105, 1)" height="1" width="1" x="59" />
    <rect fill="rgba(201, 60, 92, 1)" height="1" width="1" x="60" />
    <rect fill="rgba(185, 50, 84, 1)" height="1" width="1" x="61" />
    <rect fill="rgba(194, 47, 89, 1)" height="1" width="1" x="62" />
    <rect fill="rgba(231, 68, 111, 1)" height="1" width="1" x="63" />
  </svg>
  <svg class="apple" y="2">
    <rect fill="rgba(229, 167, 118, 1)" height="1" width="1" x="0" />
    <rect fill="rgba(226, 169, 125, 1)" height="1" width="1" x="1" />
    <rect fill="rgba(158, 130, 109, 1)" height="1" width="1" x="2" />
    <rect fill="rgba(186, 169, 157, 1)" height="1" width="1" x="3" />
    <rect fill="rgba(182, 164, 148, 1)" height="1" width="1" x="4" />
    <rect fill="rgba(143, 128, 104, 1)" height="1" width="1" x="5" />
    <rect fill="rgba(119, 92, 66, 1)" height="1" width="1" x="6" />
    <rect fill="rgba(91, 63, 38, 1)" height="1" width="1" x="7" />
    <rect fill="rgba(227, 206, 189, 1)" height="1" width="1" x="8" />
    <rect fill="rgba(231, 221, 202, 1)" height="1" width="1" x="9" />
    <rect fill="rgba(251, 230, 202, 1)" height="1" width="1" x="10" />
    <rect fill="rgba(241, 170, 139, 1)" height="1" width="1" x="11" />
    <rect fill="rgba(229, 138, 127, 1)" height="1" width="1" x="12" />
    <rect fill="rgba(234, 192, 182, 1)" height="1" width="1" x="13" />
    <rect fill="rgba(170, 158, 134, 1)" height="1" width="1" x="14" />
    <rect fill="rgba(136, 111, 79, 1)" height="1" width="1" x="15" />
    <rect fill="rgba(228, 213, 194, 1)" height="1" width="1" x="16" />
    <rect fill="rgba(245, 233, 170, 1)" height="1" width="1" x="17" />
    <rect fill="rgba(255, 188, 115, 1)" height="1" width="1" x="18" />
    <rect fill="rgba(188, 109, 58, 1)" height="1" width="1" x="19" />
    <rect fill="rgba(169, 80, 16, 1)" height="1" width="1" x="20" />
    <rect fill="rgba(250, 130, 127, 1)" height="1" width="1" x="21" />
    <rect fill="rgba(205, 156, 141, 1)" height="1" width="1" x="22" />
    <rect fill="rgba(193, 181, 157, 1)" height="1" width="1" x="23" />
    <rect fill="rgba(212, 181, 131, 1)" height="1" width="1" x="24" />
    <rect fill="rgba(215, 174, 61, 1)" height="1" width="1" x="25" />
    <rect fill="rgba(192, 61, 0, 1)" height="1" width="1" x="26" />
    <rect fill="rgba(227, 123, 105, 1)" height="1" width="1" x="27" />
    <rect fill="rgba(241, 169, 122, 1)" height="1" width="1" x="28" />
    <rect fill="rgba(191, 32, 3, 1)" height="1" width="1" x="29" />
    <rect fill="rgba(178, 106, 97, 1)" height="1" width="1" x="30" />
    <rect fill="rgba(229, 220, 203, 1)" height="1" width="1" x="31" />
    <rect fill="rgba(182, 149, 99, 1)" height="1" width="1" x="32" />
    <rect fill="rgba(151, 83, 0, 1)" height="1" width="1" x="33" />
    <rect fill="rgba(123, 3, 13, 1)" height="1" width="1" x="34" />
    <rect fill="rgba(146, 42, 0, 1)" height="1" width="1" x="35" />
    <rect fill="rgba(146, 61, 0, 1)" height="1" width="1" x="36" />
    <rect fill="rgba(73, 0, 0, 1)" height="1" width="1" x="37" />
    <rect fill="rgba(138, 113, 104, 1)" height="1" width="1" x="38" />
    <rect fill="rgba(191, 176, 159, 1)" height="1" width="1" x="39" />
    <rect fill="rgba(176, 156, 129, 1)" height="1" width="1" x="40" />
    <rect fill="rgba(144, 105, 67, 1)" height="1" width="1" x="41" />
    <rect fill="rgba(120, 40, 0, 1)" height="1" width="1" x="42" />
    <rect fill="rgba(106, 34, 26, 1)" height="1" width="1" x="43" />
    <rect fill="rgba(68, 0, 21, 1)" height="1" width="1" x="44" />
    <rect fill="rgba(68, 0, 3, 1)" height="1" width="1" x="45" />
    <rect fill="rgba(124, 99, 83, 1)" height="1" width="1" x="46" />
    <rect fill="rgba(149, 130, 108, 1)" height="1" width="1" x="47" />
    <rect fill="rgba(180, 169, 148, 1)" height="1" width="1" x="48" />
    <rect fill="rgba(110, 88, 64, 1)" height="1" width="1" x="49" />
    <rect fill="rgba(87, 13, 0, 1)" height="1" width="1" x="50" />
    <rect fill="rgba(80, 26, 22, 1)" height="1" width="1" x="51" />
    <rect fill="rgba(22, 0, 0, 1)" height="1" width="1" x="52" />
    <rect fill="rgba(112, 100, 88, 1)" height="1" width="1" x="53" />
    <rect fill="rgba(182, 170, 153, 1)" height="1" width="1" x="54" />
    <rect fill="rgba(174, 161, 142, 1)" height="1" width="1" x="55" />
    <rect fill="rgba(165, 156, 137, 1)" height="1" width="1" x="56" />
    <rect fill="rgba(139, 128, 109, 1)" height="1" width="1" x="57" />
    <rect fill="rgba(66, 54, 36, 1)" height="1" width="1" x="58" />
    <rect fill="rgba(56, 45, 30, 1)" height="1" width="1" x="59" />
    <rect fill="rgba(68, 55, 37, 1)" height="1" width="1" x="60" />
    <rect fill="rgba(99, 83, 59, 1)" height="1" width="1" x="61" />
    <rect fill="rgba(131, 117, 97, 1)" height="1" width="1" x="62" />
    <rect fill="rgba(161, 150, 132, 1)" height="1" width="1" x="63" />
  </svg>
  <svg class="orange" y="4">
    <rect fill="rgba(18, 81, 96, 1)" height="1" width="1" x="0" />
    <rect fill="rgba(57, 99, 97, 1)" height="1" width="1" x="1" />
    <rect fill="rgba(57, 67, 40, 1)" height="1" width="1" x="2" />
    <rect fill="rgba(106, 86, 36, 1)" height="1" width="1" x="3" />
    <rect fill="rgba(110, 74, 14, 1)" height="1" width="1" x="4" />
    <rect fill="rgba(132, 101, 46, 1)" height="1" width="1" x="5" />
    <rect fill="rgba(159, 145, 106, 1)" height="1" width="1" x="6" />
    <rect fill="rgba(10, 15, 0, 1)" height="1" width="1" x="7" />
    <rect fill="rgba(33, 68, 62, 1)" height="1" width="1" x="8" />
    <rect fill="rgba(81, 94, 74, 1)" height="1" width="1" x="9" />
    <rect fill="rgba(84, 66, 20, 1)" height="1" width="1" x="10" />
    <rect fill="rgba(176, 129, 61, 1)" height="1" width="1" x="11" />
    <rect fill="rgba(174, 111, 34, 1)" height="1" width="1" x="12" />
    <rect fill="rgba(138, 78, 5, 1)" height="1" width="1" x="13" />
    <rect fill="rgba(97, 55, 0, 1)" height="1" width="1" x="14" />
    <rect fill="rgba(125, 102, 60, 1)" height="1" width="1" x="15" />
    <rect fill="rgba(101, 96, 66, 1)" height="1" width="1" x="16" />
    <rect fill="rgba(72, 48, 2, 1)" height="1" width="1" x="17" />
    <rect fill="rgba(165, 111, 41, 1)" height="1" width="1" x="18" />
    <rect fill="rgba(237, 153, 63, 1)" height="1" width="1" x="19" />
    <rect fill="rgba(255, 164, 65, 1)" height="1" width="1" x="20" />
    <rect fill="rgba(242, 145, 50, 1)" height="1" width="1" x="21" />
    <rect fill="rgba(196, 114, 32, 1)" height="1" width="1" x="22" />
    <rect fill="rgba(155, 90, 24, 1)" height="1" width="1" x="23" />
    <rect fill="rgba(152, 119, 74, 1)" height="1" width="1" x="24" />
    <rect fill="rgba(42, 0, 0, 1)" height="1" width="1" x="25" />
    <rect fill="rgba(180, 101, 22, 1)" height="1" width="1" x="26" />
    <rect fill="rgba(249, 145, 46, 1)" height="1" width="1" x="27" />
    <rect fill="rgba(247, 126, 19, 1)" height="1" width="1" x="28" />
    <rect fill="rgba(230, 112, 6, 1)" height="1" width="1" x="29" />
    <rect fill="rgba(242, 133, 40, 1)" height="1" width="1" x="30" />
    <rect fill="rgba(160, 67, 0, 1)" height="1" width="1" x="31" />
    <rect fill="rgba(86, 53, 10, 1)" height="1" width="1" x="32" />
    <rect fill="rgba(63, 13, 0, 1)" height="1" width="1" x="33" />
    <rect fill="rgba(138, 64, 0, 1)" height="1" width="1" x="34" />
    <rect fill="rgba(221, 121, 33, 1)" height="1" width="1" x="35" />
    <rect fill="rgba(219, 105, 8, 1)" height="1" width="1" x="36" />
    <rect fill="rgba(234, 117, 22, 1)" height="1" width="1" x="37" />
    <rect fill="rgba(214, 106, 18, 1)" height="1" width="1" x="38" />
    <rect fill="rgba(163, 65, 0, 1)" height="1" width="1" x="39" />
    <rect fill="rgba(47, 31, 5, 1)" height="1" width="1" x="40" />
    <rect fill="rgba(81, 51, 15, 1)" height="1" width="1" x="41" />
    <rect fill="rgba(114, 62, 12, 1)" height="1" width="1" x="42" />
    <rect fill="rgba(148, 74, 9, 1)" height="1" width="1" x="43" />
    <rect fill="rgba(176, 90, 17, 1)" height="1" width="1" x="44" />
    <rect fill="rgba(186, 94, 21, 1)" height="1" width="1" x="45" />
    <rect fill="rgba(175, 88, 21, 1)" height="1" width="1" x="46" />
    <rect fill="rgba(144, 64, 5, 1)" height="1" width="1" x="47" />
    <rect fill="rgba(85, 89, 75, 1)" height="1" width="1" x="48" />
    <rect fill="rgba(50, 43, 24, 1)" height="1" width="1" x="49" />
    <rect fill="rgba(67, 44, 12, 1)" height="1" width="1" x="50" />
    <rect fill="rgba(75, 33, 0, 1)" height="1" width="1" x="51" />
    <rect fill="rgba(88, 32, 0, 1)" height="1" width="1" x="52" />
    <rect fill="rgba(65, 2, 0, 1)" height="1" width="1" x="53" />
    <rect fill="rgba(115, 51, 5, 1)" height="1" width="1" x="54" />
    <rect fill="rgba(165, 103, 62, 1)" height="1" width="1" x="55" />
    <rect fill="rgba(64, 78, 65, 1)" height="1" width="1" x="56" />
    <rect fill="rgba(48, 55, 39, 1)" height="1" width="1" x="57" />
    <rect fill="rgba(19, 13, 0, 1)" height="1" width="1" x="58" />
    <rect fill="rgba(53, 32, 1, 1)" height="1" width="1" x="59" />
    <rect fill="rgba(98, 62, 26, 1)" height="1" width="1" x="60" />
    <rect fill="rgba(176, 131, 92, 1)" height="1" width="1" x="61" />
    <rect fill="rgba(153, 104, 64, 1)" height="1" width="1" x="62" />
    <rect fill="rgba(183, 131, 94, 1)" height="1" width="1" x="63" />
  </svg>
  <svg class="kiwi" y="6">
    <rect fill="rgba(156, 128, 44, 1)" height="1" width="1" x="0" />
    <rect fill="rgba(184, 160, 72, 1)" height="1" width="1" x="1" />
    <rect fill="rgba(163, 148, 55, 1)" height="1" width="1" x="2" />
    <rect fill="rgba(142, 132, 35, 1)" height="1" width="1" x="3" />
    <rect fill="rgba(132, 122, 25, 1)" height="1" width="1" x="4" />
    <rect fill="rgba(141, 122, 30, 1)" height="1" width="1" x="5" />
    <rect fill="rgba(144, 116, 32, 1)" height="1" width="1" x="6" />
    <rect fill="rgba(148, 111, 31, 1)" height="1" width="1" x="7" />
    <rect fill="rgba(113, 96, 6, 1)" height="1" width="1" x="8" />
    <rect fill="rgba(156, 143, 51, 1)" height="1" width="1" x="9" />
    <rect fill="rgba(210, 206, 109, 1)" height="1" width="1" x="10" />
    <rect fill="rgba(201, 201, 101, 1)" height="1" width="1" x="11" />
    <rect fill="rgba(190, 190, 92, 1)" height="1" width="1" x="12" />
    <rect fill="rgba(196, 187, 94, 1)" height="1" width="1" x="13" />
    <rect fill="rgba(149, 132, 44, 1)" height="1" width="1" x="14" />
    <rect fill="rgba(108, 82, 0, 1)" height="1" width="1" x="15" />
    <rect fill="rgba(77, 72, 0, 1)" height="1" width="1" x="16" />
    <rect fill="rgba(199, 199, 103, 1)" height="1" width="1" x="17" />
    <rect fill="rgba(186, 194, 93, 1)" height="1" width="1" x="18" />
    <rect fill="rgba(168, 180, 78, 1)" height="1" width="1" x="19" />
    <rect fill="rgba(164, 176, 76, 1)" height="1" width="1" x="20" />
    <rect fill="rgba(183, 187, 92, 1)" height="1" width="1" x="21" />
    <rect fill="rgba(175, 170, 79, 1)" height="1" width="1" x="22" />
    <rect fill="rgba(64, 50, 0, 1)" height="1" width="1" x="23" />
    <rect fill="rgba(118, 118, 20, 1)" height="1" width="1" x="24" />
    <rect fill="rgba(191, 195, 98, 1)" height="1" width="1" x="25" />
    <rect fill="rgba(121, 133, 33, 1)" height="1" width="1" x="26" />
    <rect fill="rgba(222, 239, 137, 1)" height="1" width="1" x="27" />
    <rect fill="rgba(205, 219, 121, 1)" height="1" width="1" x="28" />
    <rect fill="rgba(139, 146, 51, 1)" height="1" width="1" x="29" />
    <rect fill="rgba(189, 188, 96, 1)" height="1" width="1" x="30" />
    <rect fill="rgba(105, 95, 6, 1)" height="1" width="1" x="31" />
    <rect fill="rgba(78, 70, 0, 1)" height="1" width="1" x="32" />
    <rect fill="rgba(208, 204, 107, 1)" height="1" width="1" x="33" />
    <rect fill="rgba(158, 160, 63, 1)" height="1" width="1" x="34" />
    <rect fill="rgba(154, 161, 65, 1)" height="1" width="1" x="35" />
    <rect fill="rgba(169, 174, 80, 1)" height="1" width="1" x="36" />
    <rect fill="rgba(171, 170, 78, 1)" height="1" width="1" x="37" />
    <rect fill="rgba(177, 167, 78, 1)" height="1" width="1" x="38" />
    <rect fill="rgba(72, 54, 0, 1)" height="1" width="1" x="39" />
    <rect fill="rgba(111, 87, 0, 1)" height="1" width="1" x="40" />
    <rect fill="rgba(173, 153, 58, 1)" height="1" width="1" x="41" />
    <rect fill="rgba(215, 202, 110, 1)" height="1" width="1" x="42" />
    <rect fill="rgba(195, 185, 96, 1)" height="1" width="1" x="43" />
    <rect fill="rgba(194, 184, 97, 1)" height="1" width="1" x="44" />
    <rect fill="rgba(186, 168, 84, 1)" height="1" width="1" x="45" />
    <rect fill="rgba(144, 118, 34, 1)" height="1" width="1" x="46" />
    <rect fill="rgba(69, 34, 0, 1)" height="1" width="1" x="47" />
    <rect fill="rgba(177, 139, 42, 1)" height="1" width="1" x="48" />
    <rect fill="rgba(171, 136, 42, 1)" height="1" width="1" x="49" />
    <rect fill="rgba(177, 147, 57, 1)" height="1" width="1" x="50" />
    <rect fill="rgba(141, 116, 32, 1)" height="1" width="1" x="51" />
    <rect fill="rgba(129, 102, 21, 1)" height="1" width="1" x="52" />
    <rect fill="rgba(140, 107, 28, 1)" height="1" width="1" x="53" />
    <rect fill="rgba(144, 103, 23, 1)" height="1" width="1" x="54" />
    <rect fill="rgba(162, 114, 32, 1)" height="1" width="1" x="55" />
    <rect fill="rgba(157, 114, 10, 1)" height="1" width="1" x="56" />
    <rect fill="rgba(161, 121, 23, 1)" height="1" width="1" x="57" />
    <rect fill="rgba(160, 125, 35, 1)" height="1" width="1" x="58" />
    <rect fill="rgba(104, 73, 0, 1)" height="1" width="1" x="59" />
    <rect fill="rgba(49, 18, 0, 1)" height="1" width="1" x="60" />
    <rect fill="rgba(129, 92, 12, 1)" height="1" width="1" x="61" />
    <rect fill="rgba(155, 108, 28, 1)" height="1" width="1" x="62" />
    <rect fill="rgba(160, 106, 20, 1)" height="1" width="1" x="63" />
  </svg>
  <svg class="pear" y="8">
    <rect fill="rgba(38, 48, 11, 1)" height="1" width="1" x="0" />
    <rect fill="rgba(38, 37, 6, 1)" height="1" width="1" x="1" />
    <rect fill="rgba(52, 57, 0, 1)" height="1" width="1" x="2" />
    <rect fill="rgba(69, 100, 33, 1)" height="1" width="1" x="3" />
    <rect fill="rgba(85, 78, 24, 1)" height="1" width="1" x="4" />
    <rect fill="rgba(62, 41, 0, 1)" height="1" width="1" x="5" />
    <rect fill="rgba(16, 35, 16, 1)" height="1" width="1" x="6" />
    <rect fill="rgba(38, 31, 3, 1)" height="1" width="1" x="7" />
    <rect fill="rgba(64, 84, 0, 1)" height="1" width="1" x="8" />
    <rect fill="rgba(44, 84, 22, 1)" height="1" width="1" x="9" />
    <rect fill="rgba(41, 81, 21, 1)" height="1" width="1" x="10" />
    <rect fill="rgba(103, 85, 11, 1)" height="1" width="1" x="11" />
    <rect fill="rgba(131, 127, 53, 1)" height="1" width="1" x="12" />
    <rect fill="rgba(45, 87, 23, 1)" height="1" width="1" x="13" />
    <rect fill="rgba(45, 59, 6, 1)" height="1" width="1" x="14" />
    <rect fill="rgba(62, 70, 21, 1)" height="1" width="1" x="15" />
    <rect fill="rgba(77, 96, 0, 1)" height="1" width="1" x="16" />
    <rect fill="rgba(67, 118, 43, 1)" height="1" width="1" x="17" />
    <rect fill="rgba(130, 132, 83, 1)" height="1" width="1" x="18" />
    <rect fill="rgba(230, 171, 81, 1)" height="1" width="1" x="19" />
    <rect fill="rgba(100, 109, 26, 1)" height="1" width="1" x="20" />
    <rect fill="rgba(60, 102, 56, 1)" height="1" width="1" x="21" />
    <rect fill="rgba(92, 84, 11, 1)" height="1" width="1" x="22" />
    <rect fill="rgba(44, 67, 0, 1)" height="1" width="1" x="23" />
    <rect fill="rgba(83, 92, 0, 1)" height="1" width="1" x="24" />
    <rect fill="rgba(134, 131, 80, 1)" height="1" width="1" x="25" />
    <rect fill="rgba(235, 133, 111, 1)" height="1" width="1" x="26" />
    <rect fill="rgba(223, 158, 68, 1)" height="1" width="1" x="27" />
    <rect fill="rgba(110, 134, 38, 1)" height="1" width="1" x="28" />
    <rect fill="rgba(143, 124, 56, 1)" height="1" width="1" x="29" />
    <rect fill="rgba(152, 121, 41, 1)" height="1" width="1" x="30" />
    <rect fill="rgba(42, 68, 33, 1)" height="1" width="1" x="31" />
    <rect fill="rgba(102, 111, 0, 1)" height="1" width="1" x="32" />
    <rect fill="rgba(212, 148, 112, 1)" height="1" width="1" x="33" />
    <rect fill="rgba(255, 128, 86, 1)" height="1" width="1" x="34" />
    <rect fill="rgba(180, 135, 44, 1)" height="1" width="1" x="35" />
    <rect fill="rgba(130, 153, 36, 1)" height="1" width="1" x="36" />
    <rect fill="rgba(207, 176, 34, 1)" height="1" width="1" x="37" />
    <rect fill="rgba(179, 150, 56, 1)" height="1" width="1" x="38" />
    <rect fill="rgba(62, 88, 87, 1)" height="1" width="1" x="39" />
    <rect fill="rgba(116, 123, 27, 1)" height="1" width="1" x="40" />
    <rect fill="rgba(210, 145, 77, 1)" height="1" width="1" x="41" />
    <rect fill="rgba(204, 156, 20, 1)" height="1" width="1" x="42" />
    <rect fill="rgba(165, 148, 30, 1)" height="1" width="1" x="43" />
    <rect fill="rgba(91, 99, 0, 1)" height="1" width="1" x="44" />
    <rect fill="rgba(135, 147, 1, 1)" height="1" width="1" x="45" />
    <rect fill="rgba(131, 118, 24, 1)" height="1" width="1" x="46" />
    <rect fill="rgba(48, 76, 35, 1)" height="1" width="1" x="47" />
    <rect fill="rgba(108, 108, 44, 1)" height="1" width="1" x="48" />
    <rect fill="rgba(125, 109, 11, 1)" height="1" width="1" x="49" />
    <rect fill="rgba(115, 129, 0, 1)" height="1" width="1" x="50" />
    <rect fill="rgba(77, 87, 0, 1)" height="1" width="1" x="51" />
    <rect fill="rgba(65, 78, 8, 1)" height="1" width="1" x="52" />
    <rect fill="rgba(53, 72, 0, 1)" height="1" width="1" x="53" />
    <rect fill="rgba(73, 65, 0, 1)" height="1" width="1" x="54" />
    <rect fill="rgba(42, 59, 0, 1)" height="1" width="1" x="55" />
    <rect fill="rgba(98, 96, 13, 1)" height="1" width="1" x="56" />
    <rect fill="rgba(55, 85, 0, 1)" height="1" width="1" x="57" />
    <rect fill="rgba(63, 65, 25, 1)" height="1" width="1" x="58" />
    <rect fill="rgba(50, 75, 18, 1)" height="1" width="1" x="59" />
    <rect fill="rgba(45, 79, 5, 1)" height="1" width="1" x="60" />
    <rect fill="rgba(81, 64, 21, 1)" height="1" width="1" x="61" />
    <rect fill="rgba(68, 52, 0, 1)" height="1" width="1" x="62" />
    <rect fill="rgba(70, 58, 32, 1)" height="1" width="1" x="63" />
  </svg>
</svg>
