<?xml version="1.0" standalone="no"?>
<!DOCTYPE svg PUBLIC "-//W3C//DTD SVG 20010904//EN"
 "http://www.w3.org/TR/2001/REC-SVG-20010904/DTD/svg10.dtd">
<svg version="1.0" xmlns="http://www.w3.org/2000/svg"
 width="620.000000pt" height="620.000000pt" viewBox="0 0 620.000000 620.000000"
 preserveAspectRatio="xMidYMid meet">
<metadata>
Created by potrace 1.14, written by Peter Selinger 2001-2017
</metadata>
<g transform="translate(0.000000,620.000000) scale(0.100000,-0.100000)"
fill="#000000" stroke="none">
<path d="M1984 5123 c4 -32 9 -92 11 -133 3 -41 7 -95 10 -120 2 -25 7 -88 10
-140 4 -52 8 -108 10 -123 2 -15 6 -71 10 -125 3 -53 8 -108 10 -122 2 -14 6
-72 10 -130 4 -58 8 -121 10 -140 2 -19 6 -76 10 -125 3 -50 8 -104 10 -120 2
-17 6 -75 10 -130 3 -55 8 -118 10 -140 3 -22 7 -76 10 -120 3 -44 8 -105 10
-135 3 -30 7 -82 10 -115 2 -33 7 -96 10 -140 3 -44 7 -102 10 -130 2 -27 7
-86 10 -130 4 -44 8 -100 10 -125 2 -25 7 -85 10 -135 3 -49 8 -108 10 -130 2
-22 7 -76 10 -120 3 -44 7 -102 10 -130 2 -27 7 -86 10 -130 3 -44 8 -102 10
-130 9 -108 15 -183 19 -245 6 -85 17 -226 22 -270 1 -19 6 -80 10 -135 4 -55
9 -129 13 -165 l6 -65 773 -3 c614 -2 772 0 773 10 1 7 2 24 4 38 1 14 5 66 9
115 11 142 16 197 21 235 2 19 7 73 10 120 4 47 8 101 10 120 2 19 6 76 10
125 4 50 8 106 10 125 2 19 6 73 10 120 3 47 8 101 10 120 4 33 9 96 20 240 7
84 14 173 20 230 2 25 7 81 10 125 3 44 7 96 10 115 2 19 7 73 10 120 3 47 8
101 10 120 2 19 7 71 10 115 3 44 8 100 10 125 4 48 11 136 20 248 3 37 8 83
10 102 2 19 7 80 11 135 3 55 8 109 10 119 2 10 6 60 9 110 4 50 8 107 10 126
2 19 6 73 10 120 3 47 8 99 10 115 2 17 7 71 10 120 4 50 8 107 10 129 3 21 7
70 10 110 3 39 7 91 10 116 2 25 7 79 10 120 3 41 8 96 11 123 l4 47 -1111 0
-1111 0 6 -57z"/>
</g>
</svg>
